<?xml version="1.0" encoding="utf-8"?>
<!-- Generator: Adobe Illustrator 24.1.2, SVG Export Plug-In . SVG Version: 6.00 Build 0)  -->
<svg version="1.1" id="Layer_1" xmlns="http://www.w3.org/2000/svg" xmlns:xlink="http://www.w3.org/1999/xlink" x="0px" y="0px"
	 viewBox="0 0 1280 300" style="enable-background:new 0 0 1280 300;" xml:space="preserve">
<style type="text/css">
	.st0{fill:#FFFFFF;}
	.st1{fill:#E5E5E4;}
</style>
<g id="romergarcia">
	<path class="st0" d="M67.55,83.23h10.8v20.2c7.2-14.1,19.5-23.1,34.3-23.1c7.9,0,11.9,0.7,17.7,4l-4,9c-3.6-2.2-7.6-2.9-14.4-2.9
		c-18.1,0-33.6,17.7-33.6,41.2v66.4h-10.8V83.23z M134.65,140.63c0-33.9,26.4-60.3,59.2-60.3c32.9,0,59.2,26.4,59.2,60.3
		s-26.4,60.3-59.2,60.3C161.05,200.93,134.65,174.63,134.65,140.63z M241.85,140.63c0-28.9-20.2-50.9-48-50.9s-48,22-48,50.9
		s20.2,50.9,48,50.9S241.85,169.53,241.85,140.63z M279.95,83.23h10.8v17.7c5.8-12.3,19.1-20.6,35.7-20.6c15.5,0,30,7.6,37.2,23.1
		c8.3-15.2,21.3-23.1,39.7-23.1c22,0,40.4,14.4,40.4,41.5v76.2h-10.8v-74.4c0-22.4-11.9-33.6-29.6-33.6c-22.4,0-36.1,13.7-36.1,37.2
		v70.8h-10.8v-74c0-22.4-11.2-33.9-30-33.9c-22,0-35.7,13.7-35.7,38.3v69.7h-10.8L279.95,83.23L279.95,83.23z M529.85,191.53
		c20.6,0,32.1-7.2,41.2-18.4l7.2,6.5c-10.5,13.4-26.4,21.3-48.4,21.3c-35.4,0-60.3-26.4-60.3-60.3s26-60.3,57.8-60.3
		c33.9,0,56,25.6,56.7,62.5h-103.2C481.85,173.13,502.75,191.53,529.85,191.53L529.85,191.53z M572.75,133.43
		c-2.9-24.5-17-43.7-45.5-43.7c-25.3,0-43.3,18.4-46.2,43.7H572.75z M609.85,83.23h10.8v20.2c7.2-14.1,19.5-23.1,34.3-23.1
		c7.9,0,11.9,0.7,17.7,4l-4,9c-3.6-2.2-7.6-2.9-14.4-2.9c-18.1,0-33.6,17.7-33.6,41.2v66.4h-10.8V83.23z"/>
	<path class="st1" d="M784.55,85.03v3.2h-34.3c12.6,7.2,20.9,20.9,20.9,37.5c0,25.3-19.5,43.7-44,43.7c-10.5,0-19.9-3.2-27.4-9
		c-6.1,1.4-13.7,7.2-13.7,15.9c0,10.5,8.3,15.9,20.2,16.6l26.4,1.4c35.4,1.8,52.3,17.7,52.3,41.5c0,26.4-27.8,40.4-58.1,40.4
		c-32.5,0-58.1-15.5-58.1-41.2c0-20.9,13.7-35,39.7-39h-1.1c-15.2-0.4-24.9-7.2-24.9-19.9c0-9.4,7.2-16.2,14.4-18.4
		c-8.7-7.9-13.7-19.1-13.7-32.1c0-25.3,19.5-43.7,44-43.7c5.8,0,11.2,1.1,16.2,2.9h41.2V85.03L784.55,85.03z M672.25,235.23
		c0,23.5,24.2,37.9,54.5,37.9c28.2,0,54.5-13,54.5-37.2c0-22.4-16.2-36.1-48.7-37.9C694.25,195.93,672.25,210.33,672.25,235.23z
		 M767.55,125.83c0-23.5-18.1-40.4-40.4-40.4c-22.4,0-40.4,17.3-40.4,40.4c0,23.5,18.1,40.4,40.4,40.4
		C749.55,166.33,767.55,148.93,767.55,125.83z M878.05,124.83c0-28.5-15.9-39.4-38.6-39.4c-18.1,0-30.7,7.6-39.7,20.6l-2.5-1.8
		c8.3-13,22.7-22,42.2-22c24.5,0,42.2,11.9,42.2,42.6v73.3h-3.6v-23.5c-6.1,16.2-22.4,26-45.1,26c-25.3,0-44-12.6-44-33.6
		c0-23.5,19.5-32.5,40.8-32.5h48.4v-9.7H878.05L878.05,124.83z M878.05,137.83h-48.4c-19.1,0-37.2,7.6-37.2,29.2
		c0,19.1,17.3,30.3,40.4,30.3c26.4,0,45.1-15.2,45.1-37.5L878.05,137.83z M950.75,82.23c8.3,0,12.6,1.4,18.4,5.4l-1.8,2.9
		c-5.4-3.6-9.4-5.1-16.6-5.1c-15.2,0-34.7,12.3-34.7,45.5v67.1h-3.6v-113h3.6v25.3C922.65,89.73,937.75,82.23,950.75,82.23
		L950.75,82.23z M1026.55,200.63c-32.1,0-57-25.3-57-59.2s24.9-59.2,57-59.2c18.8,0,32.9,6.9,43.3,19.9l-2.5,2.2
		c-9.7-12.6-22.7-18.8-40.8-18.8c-30,0-53.4,24.2-53.4,56s23.5,56,53.4,56c18.4,0,34.7-7.2,44.8-20.2l2.5,2.2
		C1063.35,193.03,1046.05,200.63,1026.55,200.63z M1091.15,30.23c0-1.8,1.8-3.6,3.6-3.6s3.6,1.8,3.6,3.6c0,1.8-1.8,3.6-3.6,3.6
		S1091.15,32.03,1091.15,30.23z M1092.95,85.03h3.6v113h-3.6V85.03z M1208.15,124.83c0-28.5-15.9-39.4-38.6-39.4
		c-18.1,0-30.7,7.6-39.7,20.6l-2.5-1.8c8.3-13,22.7-22,42.2-22c24.5,0,42.2,11.9,42.2,42.6v73.3h-3.6v-23.5
		c-6.1,16.2-22.4,26-45.1,26c-25.3,0-44-12.6-44-33.6c0-23.5,19.5-32.5,40.8-32.5h48.4v-9.7H1208.15z M1208.15,137.83h-48.4
		c-19.1,0-37.2,7.6-37.2,29.2c0,19.1,17.3,30.3,40.4,30.3c26.4,0,45.1-15.2,45.1-37.5L1208.15,137.83L1208.15,137.83z"/>
	<g>
		<path class="st0" d="M73.75,228.83c0.1-0.4,0.3-0.3,0.5-0.1l16.5,18.5l16.2-18.5c0.2-0.3,0.4-0.3,0.5,0.1l2,34.7h-9l-0.8-14.7
			l-8.6,10c-0.2,0.2-0.3,0.2-0.5,0l-8.9-10l-0.8,14.7h-9L73.75,228.83L73.75,228.83z M143.85,250.23v-21.1h9.2v21
			c0,3.9,1.8,6.1,5.7,6.1s5.7-2.2,5.7-6.1v-21h9.2v21.1c0,9.3-6.3,13.8-14.9,13.8S143.85,259.43,143.85,250.23L143.85,250.23z
			 M209.65,229.13h9.2v26.7h14.6v7.7h-23.8L209.65,229.13L209.65,229.13z M270.25,236.93h-9.1v-7.7h27.4v7.7h-9.1v26.6h-9.2
			L270.25,236.93L270.25,236.93z M323.15,229.13h9.2v34.4h-9.2V229.13z M369.95,228.83c0.1-0.4,0.3-0.3,0.5-0.1l16.5,18.5l16.2-18.5
			c0.2-0.3,0.4-0.3,0.5,0.1l2,34.7h-9l-0.8-14.7l-8.6,10c-0.2,0.2-0.3,0.2-0.5,0l-8.9-10l-0.8,14.7h-9L369.95,228.83L369.95,228.83z
			 M440.95,229.13h24.1v7.7h-14.9v8h12.4v7.3h-12.4v3.6h15.6v7.7h-24.8L440.95,229.13L440.95,229.13z M500.55,229.13h13.3
			c9.9,0,17.4,6.5,17.4,17.2s-7.5,17.2-17.4,17.2h-13.3V229.13z M512.85,255.73c5.6,0,9-3.7,9-9.4s-3.4-9.4-9-9.4h-3.1v18.8
			L512.85,255.73L512.85,255.73z M565.85,229.13h9.2v34.4h-9.2V229.13z M617.75,263.53h-9l16.7-35c0.2-0.4,0.5-0.4,0.6,0l16.7,35
			h-9.5l-1.3-2.9h-12.9L617.75,263.53L617.75,263.53z M625.45,245.73l-3.4,8h7L625.45,245.73z"/>
	</g>
	<g>
		<path class="st0" d="M828.25,263.53h-9l16.7-35c0.2-0.4,0.5-0.4,0.6,0l16.7,35h-9.5l-1.3-2.9h-12.9L828.25,263.53L828.25,263.53z
			 M835.85,245.73l-3.4,8h7L835.85,245.73z M916.65,263.53h-10l-4.8-7.9h-3.4v7.9h-9.2v-34.4h13c9.3,0,14.5,5.9,14.5,13.5
			c0,5-2.2,8.9-6.2,11.1L916.65,263.53L916.65,263.53z M901.85,248.33c4.1,0,5.7-2.3,5.7-5.7c0-3.3-1.5-5.7-5.7-5.7h-3.4v11.4
			H901.85z M961.25,236.93h-9.1v-7.7h27.4v7.7h-9.1v26.6h-9.2L961.25,236.93L961.25,236.93z M1016.65,229.13h9.2v34.4h-9.2V229.13z
			 M1062.15,257.63l6.7-5c1.7,2.1,3.7,3.7,7.2,3.7c2.7,0,4.3-0.8,4.3-2.7c0-1.5-1.1-2.2-3.4-2.9l-4-1.4c-5-1.7-8.5-4.7-8.5-10.4
			c0-6.8,5.6-10.3,11.7-10.3s9.4,2.2,11.4,4.5l-5.3,5.5c-1.4-1.5-2.9-2.5-5.7-2.5c-2.2,0-3.3,1-3.3,2.4c0,1.3,0.8,2,2.4,2.5l4.5,1.5
			c6.9,2.3,9.2,5.6,9.2,10.4c0,6.3-3.9,10.9-13,10.9C1068.65,264.03,1064.25,260.53,1062.15,257.63L1062.15,257.63z M1132.45,236.93
			h-9.1v-7.7h27.4v7.7h-9.1v26.6h-9.2L1132.45,236.93L1132.45,236.93z"/>
	</g>
</g>
</svg>
