<?xml version="1.0" encoding="utf-8"?>
<!-- Generator: Adobe Illustrator 24.1.2, SVG Export Plug-In . SVG Version: 6.00 Build 0)  -->
<svg version="1.1" id="Layer_1" xmlns="http://www.w3.org/2000/svg" xmlns:xlink="http://www.w3.org/1999/xlink" x="0px" y="0px"
	 viewBox="0 0 2580 1250.6" style="enable-background:new 0 0 2580 1250.6;" xml:space="preserve">
<style type="text/css">
	.st0{fill:#262626;}
	.st1{clip-path:url(#SVGID_2_);}
	.st2{fill:#3D3D3D;}
	.st3{clip-path:url(#SVGID_4_);}
	.st4{fill:#515151;}
	.st5{clip-path:url(#SVGID_6_);}
	.st6{fill:#636363;}
	.st7{clip-path:url(#SVGID_8_);fill:#939393;}
	.st8{clip-path:url(#SVGID_10_);}
	.st9{fill:#141414;}
	.st10{fill:#191919;}
	.st11{clip-path:url(#SVGID_12_);}
</style>
<g id="face">
	<rect class="st0" width="2580" height="1251"/>
	<g>
		<defs>
			<rect id="SVGID_1_" y="0.8" width="2580" height="1249.8"/>
		</defs>
		<clipPath id="SVGID_2_">
			<use xlink:href="#SVGID_1_"  style="overflow:visible;"/>
		</clipPath>
		<g class="st1">
			<ellipse class="st2" cx="1531.5" cy="637.1" rx="886.1" ry="885.5"/>
		</g>
	</g>
	<g>
		<defs>
			<rect id="SVGID_3_" y="0.8" width="2580" height="1249.8"/>
		</defs>
		<clipPath id="SVGID_4_">
			<use xlink:href="#SVGID_3_"  style="overflow:visible;"/>
		</clipPath>
		<g class="st3">
			<circle class="st4" cx="1531.4" cy="632.5" r="553.5"/>
		</g>
	</g>
	<g>
		<defs>
			<rect id="SVGID_5_" y="0.8" width="2580" height="1249.8"/>
		</defs>
		<clipPath id="SVGID_6_">
			<use xlink:href="#SVGID_5_"  style="overflow:visible;"/>
		</clipPath>
		<g class="st5">
			<circle class="st6" cx="1531.4" cy="637.5" r="411.7"/>
		</g>
	</g>
	<g>
		<defs>
			<rect id="SVGID_7_" y="0.8" width="2580" height="1249.8"/>
		</defs>
		<clipPath id="SVGID_8_">
			<use xlink:href="#SVGID_7_"  style="overflow:visible;"/>
		</clipPath>
		<circle class="st7" cx="1531.1" cy="636.3" r="304.3"/>
	</g>
	<g>
		<defs>
			<rect id="SVGID_9_" y="0.8" width="2580" height="1249.8"/>
		</defs>
		<clipPath id="SVGID_10_">
			<use xlink:href="#SVGID_9_"  style="overflow:visible;"/>
		</clipPath>
		<g class="st8">
			<path d="M1547.6-648.7C838.2-648.7,263.2-77,263.2,628.1s575,1276.8,1284.3,1276.8s1284.3-571.7,1284.3-1276.8
				S2256.9-648.7,1547.6-648.7z M1547.6,1606.8c-543.7,0-984.5-438.2-984.5-978.7s440.8-978.7,984.5-978.7s984.5,438.2,984.5,978.7
				S2091.3,1606.8,1547.6,1606.8z"/>
			<path class="st9" d="M1547.5-605.1C862.5-605.1,307.1-53,307.1,628.1s555.4,1233.2,1240.4,1233.2S2788,1309.2,2788,628.1
				S2232.6-605.1,1547.5-605.1z M1547.5,1573.4c-525.1,0-950.8-423.3-950.8-945.3s425.7-945.3,950.8-945.3s950.9,423.2,950.9,945.3
				S2072.7,1573.4,1547.5,1573.4L1547.5,1573.4z"/>
			<path d="M1547.5-579.9C876.4-579.9,332.4-39,332.4,628.1s544,1208,1215.1,1208s1215.2-540.9,1215.2-1208
				S2218.7-579.9,1547.5-579.9L1547.5-579.9z M1547.5,1554.1c-514.3,0-931.4-414.6-931.4-926s417-926,931.4-926
				s931.5,414.6,931.5,926S2062,1554.1,1547.5,1554.1z"/>
			<path class="st9" d="M1547.5-539.1c-648.4,0-1174,522.6-1174,1167.2s525.6,1167.2,1174,1167.2s1174.1-522.6,1174.1-1167.2
				S2196-539.1,1547.5-539.1z M1547.5,1522.8c-497,0-899.9-400.6-899.9-894.7s402.9-894.7,899.9-894.7s899.9,400.6,899.9,894.7
				S2044.6,1522.8,1547.5,1522.8L1547.5,1522.8z"/>
			<path class="st10" d="M1547.5-288.8c-509.3,0-922.3,410.5-922.3,916.9s412.9,916.9,922.3,916.9s922.3-410.5,922.3-916.9
				S2056.9-288.8,1547.5-288.8L1547.5-288.8z M1547.5,1512.5c-491.2,0-889.5-396-889.5-884.4s398.3-884.4,889.5-884.4
				s889.6,396,889.6,884.4S2038.8,1512.5,1547.5,1512.5L1547.5,1512.5z"/>
			<path d="M1547.5-267.4c-497.5,0-900.8,401-900.8,895.5s403.3,895.5,900.8,895.5s900.8-401,900.8-895.5S2045.1-267.4,1547.5-267.4
				L1547.5-267.4z M1547.5,1491.8c-479.8,0-868.8-386.7-868.8-863.7s389-863.7,868.8-863.7s868.8,386.7,868.8,863.7
				S2027.4,1491.8,1547.5,1491.8z"/>
		</g>
	</g>
	<g>
		<defs>
			<rect id="SVGID_11_" y="0.8" width="2580" height="1249.8"/>
		</defs>
		<clipPath id="SVGID_12_">
			<use xlink:href="#SVGID_11_"  style="overflow:visible;"/>
		</clipPath>
		<g class="st11">
			<circle cx="1933.5" cy="325.3" r="84.3"/>
			<ellipse transform="matrix(0.7071 -0.7071 0.7071 0.7071 437.7756 1518.4839)" cx="2051.9" cy="230.8" rx="136.2" ry="136.2"/>
		</g>
	</g>
</g>
</svg>
